<?xml version="1.0" encoding="UTF-8"?>
<svg id="katman_1" data-name="katman 1" xmlns="http://www.w3.org/2000/svg" version="1.1" viewBox="0 0 80 80">
  <defs>
    <style>
      .cls-1 {
        fill: #000;
      }

      .cls-1, .cls-2 {
        stroke-width: 0px;
      }

      .cls-2 {
        fill: #fff;
      }
    </style>
  </defs>
  <rect class="cls-1" x="28.82" y="7.76" width="22.36" height="63.99" rx="9.62" ry="9.62"/>
  <rect class="cls-1" x="28.44" y="7.76" width="23.12" height="63.99" rx="8.67" ry="8.67" transform="translate(.24 79.76) rotate(-90)"/>
  <path class="cls-2" d="M31.19,22.15c.04-.12,7.17-9.17,7.17-9.17,0,0,1.39-2.69,3.22,0,1.83,2.69,7.21,9.17,7.21,9.17.26.79.16,1.57-.29,1.99-.37.35-.87.36-1.37.37-.97.02-1.86-.43-2.21-.6,0,0,0,0,0,0-.01,0-1.4-.62-3-.96-1.4-.29-2.69-.16-3.74.09-1.8.5-3.59,1-5.39,1.5,0,0-2.24-.18-1.59-2.38Z"/>
  <path class="cls-2" d="M48.83,58.5c-.03.12-6.92,9.36-6.92,9.36,0,0-1.31,2.73-3.22.09-1.91-2.64-7.46-8.97-7.46-8.97-.28-.79-.2-1.56.24-2,.36-.36.86-.38,1.36-.4.97-.04,1.87.38,2.22.54,0,0,0,0,0,0,.01,0,1.41.58,3.03.88,1.41.25,2.7.09,3.74-.19,1.78-.55,3.57-1.1,5.35-1.64,0,0,2.24.12,1.65,2.34Z"/>
  <path class="cls-2" d="M58.29,31.63c.12.04,9.17,7.17,9.17,7.17,0,0,2.69,1.39,0,3.22-2.69,1.83-9.17,7.21-9.17,7.21-.79.26-1.57.16-1.99-.29-.35-.37-.36-.87-.37-1.37-.02-.97.43-1.86.6-2.21,0,0,0,0,0,0,0-.01.62-1.4.96-3,.29-1.4.16-2.69-.09-3.74-.5-1.8-1-3.59-1.5-5.39,0,0,.18-2.24,2.38-1.59Z"/>
  <path class="cls-2" d="M21.94,49.27c-.12-.03-9.36-6.92-9.36-6.92,0,0-2.73-1.31-.09-3.22,2.64-1.91,8.97-7.46,8.97-7.46.79-.28,1.56-.2,2,.24.36.36.38.86.4,1.36.04.97-.38,1.87-.54,2.22,0,0,0,0,0,0,0,.01-.58,1.41-.88,3.03-.25,1.41-.09,2.7.19,3.74.55,1.78,1.1,3.57,1.64,5.35,0,0-.12,2.24-2.34,1.65Z"/>
</svg>