<?xml version="1.0" encoding="UTF-8"?>
<svg id="katman_1" data-name="katman 1" xmlns="http://www.w3.org/2000/svg" version="1.1" viewBox="0 0 80 80">
  <defs>
    <style>
      .cls-1 {
        fill: #000;
      }

      .cls-1, .cls-2 {
        stroke-width: 0px;
      }

      .cls-2 {
        fill: #fff;
      }
    </style>
  </defs>
  <rect class="cls-1" x="8" y="28.2" width="64" height="23.1" rx="8.7" ry="8.7"/>
  <path class="cls-2" d="M58.3,31.6c0,0,9.2,7.2,9.2,7.2,0,0,2.7,1.4,0,3.2s-9.2,7.2-9.2,7.2c-.8.3-1.6.2-2-.3-.3-.4-.4-.9-.4-1.4,0-1,.4-1.9.6-2.2h0s.6-1.4,1-3c.3-1.4.2-2.7,0-3.7-.5-1.8-1-3.6-1.5-5.4,0,0,.2-2.2,2.4-1.6h0Z"/>
  <path class="cls-2" d="M21.9,49.3c-.1,0-9.4-6.9-9.4-6.9,0,0-2.7-1.3,0-3.2s9-7.5,9-7.5c.8-.3,1.6-.2,2,.2s.4.9.4,1.4c0,1-.4,1.9-.5,2.2h0s-.6,1.4-.9,3c-.2,1.4,0,2.7.2,3.7.5,1.8,1.1,3.6,1.6,5.3,0,0-.1,2.2-2.3,1.7h-.1Z"/>
</svg>